{"title":"Unearthed 2016 S01E06 Secrets at the Palace 720p HDTV HEVC x265","uid":15542033,"size":353250752,"categoryP":"video","categoryS":"hd___tv_shows","magnet":"?xt=urn:btih:be622774699e69be40f17d693f4f2b9ba4b472df&amp;dn=Unearthed+2016+S01E06+Secrets+at+the+Palace+720p+HDTV+HEVC+x265&amp;tr=udp%3A%2F%2Ftracker.leechers-paradise.org%3A6969&amp;tr=udp%3A%2F%2Fzer0day.ch%3A1337&amp;tr=udp%3A%2F%2Fopen.demonii.com%3A1337&amp;tr=udp%3A%2F%2Ftracker.coppersurfer.tk%3A6969&amp;tr=udp%3A%2F%2Fexodus.desync.com%3A6969","seeders":3,"leechers":2,"uploader":"nayhtut","files":1,"time":1470926488,"description":"[Screenshots]\r\n \nhttps://s10.postimg.org/ggvgy65ix/Unearthed_2016_S01_E06_Secrets_at_the_Palace_720p.jpg \nhttps://s10.postimg.org/dbav7ymwp/Unearthed_2016_S01_E06_Secrets_at_the_Palace_720p.jpg \nhttps://s10.postimg.org/69cxlrjax/Unearthed_2016_S01_E06_Secrets_at_the_Palace_720p.jpgg\r\n\r\n\r\nSource: Unearthed 2016 S01E06 Secrets at the Palace 720p HDTV x264-DHD (1.22 GB)\r\n\r\n__--__--__--__--__--__--__--__--__--__--__--__--__--\r\n\r\n\r\nComplete name                            : Unearthed.2016.S01E06.Secrets.at.the.Palace.720p.HDTV.HEVC.2CH.x265.mkv\r\nFormat                                   : Matroska\r\nFormat version                           : Version 4 / Version 2\r\nFile size                                : 337 MiB\r\nDuration                                 : 43mn 1s\r\nOverall bit rate                         : 1 095 Kbps\r\nWriting application                      : Lavf57.25.100\r\nWriting library                          : Lavf57.25.100\r\n\r\nVideo\r\n\r\nID                                       : 1\r\nFormat                                   : V_MPEGH/ISO/HEVC\r\nCodec ID                                 : V_MPEGH/ISO/HEVC\r\nDuration                                 : 43mn 1s\r\nBit rate                                 : 881 Kbps\r\nWidth                                    : 1 280 pixels\r\nHeight                                   : 720 pixels\r\nDisplay aspect ratio                     : 16:9\r\nFrame rate                               : 25.000 fps\r\nBits/(Pixel*Frame)                       : 0.038\r\nStream size                              : 271 MiB (80%)\r\nWriting library                          : Lavc57.48.101 libx265\r\nDefault                                  : Yes\r\nForced                                   : No\r\nDURATION                                 : 00:43:01.131000000\r\nNUMBER_OF_FRAMES                         : 64527\r\nNUMBER_OF_BYTES                          : 1147648152\r\n_STATISTICS_WRITING_APP                  : mkvmerge v9.3.1 ('Mask Machine') 64bit\r\n_STATISTICS_WRITING_DATE_UTC             : 2016-08-10 11:40:07\r\n_STATISTICS_TAGS                         : BPS DURATION NUMBER_OF_FRAMES NUMBER_OF_BYTES\r\n\r\nAudio\r\n\r\nID                                       : 2\r\nFormat                                   : AC-3\r\nFormat/Info                              : Audio Coding 3\r\nMode extension                           : CM (complete main)\r\nFormat settings, Endianness              : Big\r\nCodec ID                                 : A_AC3\r\nDuration                                 : 43mn 1s\r\nBit rate mode                            : Constant\r\nBit rate                                 : 192 Kbps\r\nChannel(s)                               : 2 channels\r\nChannel positions                        : Front: L R\r\nSampling rate                            : 48.0 KHz\r\nBit depth                                : 16 bits\r\nCompression mode                         : Lossy\r\nStream size                              : 59.1 MiB (18%)\r\nWriting library                          : Lavc57.24.102 ac3\r\nDefault                                  : Yes\r\nForced                                   : No\r\nDURATION                                 : 00:43:01.063000000\r\nNUMBER_OF_FRAMES                         : 80646\r\nNUMBER_OF_BYTES                          : 123872256\r\n_STATISTICS_WRITING_APP                  : mkvmerge v9.3.1 ('Mask Machine') 64bit\r\n_STATISTICS_WRITING_DATE_UTC             : 2016-08-10 11:40:07\r\n_STATISTICS_TAGS                         : BPS DURATION NUMBER_OF_FRAMES NUMBER_OF_BYTES\r\n\r\nText\r\n\r\nID                                       : 3\r\nFormat                                   : ASS\r\nCodec ID                                 : S_TEXT/ASS\r\nCodec ID/Info                            : Advanced Sub Station Alpha\r\nCompression mode                         : Lossless\r\nWriting library                          : Lavc57.48.101 ssa\r\nLanguage                                 : English\r\nDefault                                  : No\r\nForced                                   : No\r\nDURATION                                 : 00:42:41.500000000\r\nNUMBER_OF_FRAMES                         : 771\r\nNUMBER_OF_BYTES                          : 30951\r\n_STATISTICS_WRITING_APP                  : mkvmerge v9.3.1 ('Mask Machine') 64bit\r\n_STATISTICS_WRITING_DATE_UTC             : 2016-08-10 11:40:07\r\n_STATISTICS_TAGS                         : BPS DURATION NUMBER_OF_FRAMES NUMBER_OF_BYTES\r\n\r\n__--__--__--__--__--__--__--__--__--__--__--__--__--\r\n\r\n\r\n\r\nIMDb: http://www.imdb.com/title/tt4060508\r\n\r\nAfter adding torrent with magnet link,\r\n\r\nplease add this  following trackers list to the torrent for better seeds.\r\n\r\n\r\nudp://tracker.coppersurfer.tk:6969/announce\r\n\r\nudp://tracker.opentrackr.org:1337/announce\r\n \nhttp://tracker.baravik.org:6970/announce\r\n \nhttp://tracker2.wasabii.com.tw:6969/announce\r\n\r\nudp://9.rarbg.me:2710/announce\r\n\r\n\r\n__--__--__--__--__--__--__--__--__--__--__--__--__--\r\n\r\n\r\nEnjoy!","torrent":{"xt":"urn:btih:be622774699e69be40f17d693f4f2b9ba4b472df","amp;dn":"Unearthed+2016+S01E06+Secrets+at+the+Palace+720p+HDTV+HEVC+x265","amp;tr":["udp%3A%2F%2Ftracker.leechers-paradise.org%3A6969","udp%3A%2F%2Fzer0day.ch%3A1337","udp%3A%2F%2Fopen.demonii.com%3A1337","udp%3A%2F%2Ftracker.coppersurfer.tk%3A6969","udp%3A%2F%2Fexodus.desync.com%3A6969"],"infoHash":"be622774699e69be40f17d693f4f2b9ba4b472df","infoHashBuffer":{"type":"Buffer","data":[190,98,39,116,105,158,105,190,64,241,125,105,63,79,43,155,164,180,114,223]},"announce":[],"urlList":[]}}